<?xml version="1.0" standalone="no"?>
<!DOCTYPE svg PUBLIC "-//W3C//DTD SVG 20010904//EN"
 "http://www.w3.org/TR/2001/REC-SVG-20010904/DTD/svg10.dtd">
<svg version="1.0" xmlns="http://www.w3.org/2000/svg"
 width="663.000000pt" height="443.000000pt" viewBox="0 0 663.000000 443.000000"
 preserveAspectRatio="xMidYMid meet">
<metadata>
Created by potrace 1.16, written by Peter Selinger 2001-2019
</metadata>
<g transform="translate(0.000000,443.000000) scale(0.100000,-0.100000)"
fill="#000000" stroke="none">
<path d="M3171 4199 c-30 -5 -68 -17 -85 -25 -17 -9 -43 -23 -58 -31 -16 -8
-28 -19 -28 -24 0 -17 -27 -38 -74 -59 -25 -10 -46 -22 -46 -24 0 -3 6 -3 14
0 7 3 16 -2 20 -11 4 -11 -11 -39 -46 -83 -29 -36 -47 -63 -40 -59 18 12 15
-3 -8 -40 -11 -18 -26 -33 -33 -33 -8 0 -27 -19 -43 -42 -18 -25 -45 -49 -71
-60 -24 -10 -47 -27 -53 -38 -13 -24 -13 -33 0 -25 5 3 7 0 4 -8 -3 -8 2 -17
10 -20 11 -4 14 -19 11 -64 -3 -50 -8 -61 -34 -83 -20 -15 -31 -34 -31 -50 0
-14 -13 -38 -31 -56 l-32 -33 22 -41 c12 -23 18 -46 15 -52 -4 -6 1 -17 11
-24 14 -11 15 -16 6 -28 -15 -17 -11 -78 5 -72 16 6 28 -4 58 -51 14 -24 30
-43 35 -43 5 0 7 -9 4 -20 -8 -29 3 -51 22 -44 12 5 13 10 6 17 -17 17 -13 25
14 23 16 0 23 -6 20 -13 -3 -8 5 -13 20 -13 14 0 25 -5 25 -11 0 -5 -4 -8 -9
-5 -5 4 -22 1 -38 -5 -15 -6 -55 -15 -88 -20 -69 -11 -115 -27 -115 -41 0 -5
-4 -6 -10 -3 -5 3 -7 0 -4 -8 5 -14 -30 -35 -86 -52 -60 -19 -193 -129 -232
-194 -34 -55 -90 -121 -100 -115 -4 3 15 39 44 81 52 76 160 178 219 209 l32
16 -21 21 -21 21 -57 -39 c-31 -22 -109 -94 -173 -162 -88 -93 -126 -142 -159
-205 -27 -51 -63 -102 -100 -138 -31 -31 -83 -97 -115 -146 -32 -49 -84 -127
-117 -173 -82 -118 -153 -278 -158 -358 -7 -109 26 -153 269 -359 80 -68 163
-144 184 -169 l37 -46 -22 -67 c-28 -82 -38 -244 -20 -335 6 -34 28 -95 47
-135 30 -60 36 -84 34 -127 -1 -29 5 -69 13 -89 11 -27 12 -42 3 -71 -9 -31
-8 -39 10 -63 34 -45 74 -64 112 -51 30 11 34 9 109 -59 l77 -70 110 -1 c83
-1 106 1 95 10 -12 9 -11 9 5 3 11 -5 117 -10 235 -12 l216 -3 81 34 c110 46
212 116 297 203 115 115 165 220 211 434 8 41 20 82 25 90 47 76 -29 -251 -86
-367 -66 -135 -223 -272 -407 -358 l-72 -34 603 0 602 -1 0 38 c0 20 5 55 11
77 6 22 13 141 16 265 6 293 7 277 -7 335 -6 28 -14 101 -17 164 -5 108 -4
114 13 107 46 -19 91 -16 162 8 116 40 232 138 273 231 17 39 19 58 13 167 -4
68 -13 140 -20 161 -7 21 -18 97 -25 170 -10 123 -16 151 -50 234 -7 18 -11
34 -9 36 21 19 582 435 608 450 25 15 62 21 155 27 118 7 124 7 164 -17 47
-26 60 -24 102 21 14 15 35 26 51 26 17 0 38 12 60 35 23 24 43 35 63 35 18 0
39 10 58 29 30 31 36 59 19 92 -9 16 -5 27 21 59 30 37 31 42 24 97 -18 151
-99 224 -264 239 -57 5 -73 3 -121 -20 -30 -14 -65 -26 -77 -26 -12 0 -35 -11
-52 -25 -22 -20 -36 -24 -56 -19 -19 5 -35 1 -54 -13 -14 -11 -45 -30 -67 -41
-50 -25 -119 -106 -138 -158 -11 -34 -46 -62 -321 -261 -170 -123 -312 -223
-316 -223 -5 0 -11 17 -14 38 -3 20 -12 60 -20 87 -8 28 -19 77 -25 109 -15
88 -43 137 -121 210 -80 76 -119 98 -226 127 -43 11 -82 25 -87 30 -6 5 5 30
27 62 49 72 50 115 2 175 l-34 43 20 32 c26 43 24 76 -7 118 -21 29 -24 41
-19 77 11 76 -10 135 -75 206 -56 62 -58 66 -65 137 -8 84 -20 112 -80 189
-23 30 -52 75 -65 100 -34 67 -175 199 -158 148 6 -18 -19 -41 -34 -31 -13 7
-58 13 -132 16 -24 0 -47 8 -58 19 -20 20 -35 20 -117 7z m161 -139 c10 -15
24 -20 55 -20 25 0 43 -5 43 -11 0 -6 14 -27 30 -46 41 -46 41 -65 0 -43 -27
15 -127 15 -145 0 -11 -9 -12 -17 -4 -32 6 -11 8 -26 5 -33 -2 -7 2 -19 9 -25
8 -7 13 -16 10 -20 -6 -10 25 -36 53 -43 15 -3 22 -1 22 9 0 7 6 11 13 8 11
-4 11 -15 0 -62 -17 -67 -35 -112 -45 -112 -22 0 -45 44 -46 87 0 43 -15 68
-34 57 -4 -3 -19 3 -33 12 -24 15 -24 18 -10 34 26 28 3 103 -38 125 -29 15
-32 21 -33 67 -1 45 1 49 13 33 7 -11 13 -13 13 -7 0 7 6 12 14 12 7 0 19 7
26 15 18 22 67 19 82 -5z m54 -968 c12 -9 27 -27 33 -40 7 -12 16 -20 21 -17
5 3 12 0 16 -7 5 -7 10 -3 17 13 5 13 11 19 14 12 2 -7 0 -21 -6 -32 -17 -32
-13 -49 17 -63 15 -8 26 -21 26 -31 -1 -9 4 -17 10 -17 12 0 28 25 40 62 7 22
36 13 36 -12 0 -10 -7 -20 -15 -24 -9 -3 -15 -18 -15 -35 0 -28 -1 -29 -29
-18 -15 5 -37 7 -47 3 -16 -7 -13 -10 19 -22 21 -7 44 -11 52 -8 12 5 15 -4
15 -47 0 -51 -3 -57 -48 -104 -26 -27 -56 -55 -67 -62 -13 -8 -16 -15 -9 -20
18 -13 16 -130 -2 -159 -11 -15 -14 -35 -11 -54 10 -48 -9 -43 -23 6 -7 24
-21 49 -31 54 -14 8 -19 5 -24 -20 -5 -22 1 -47 24 -95 17 -36 31 -70 31 -77
0 -6 20 -49 45 -95 25 -45 45 -87 45 -93 0 -15 -20 -12 -20 3 -1 12 -70 96
-70 83 0 -11 38 -68 68 -101 16 -18 12 -77 -5 -82 -7 -3 -24 7 -38 21 -21 21
-27 23 -31 11 -4 -8 -10 -12 -15 -9 -5 3 -9 -1 -9 -9 0 -17 33 -33 38 -19 4
14 68 -11 97 -38 32 -30 32 -62 1 -132 -49 -110 -40 -176 27 -211 23 -12 42
-16 50 -11 7 5 0 -3 -17 -17 -30 -27 -30 -33 3 -75 9 -11 1 -4 -17 15 -27 29
-30 36 -17 43 22 13 19 22 -14 35 -70 26 -88 134 -38 230 35 67 35 107 2 129
-78 51 -228 -36 -322 -188 -45 -72 -54 -75 -16 -6 32 59 118 157 157 177 23
13 26 20 26 69 0 41 -3 53 -13 49 -33 -12 -39 10 -48 169 -5 88 -11 171 -15
186 -3 16 -1 43 6 62 10 32 13 33 51 29 37 -5 129 15 129 27 0 6 -40 43 -59
55 -11 6 -12 1 -7 -29 7 -38 -11 -54 -21 -17 -6 23 -44 35 -55 18 -5 -8 -8 -4
-8 11 0 19 4 22 20 17 11 -4 20 -2 20 4 0 6 -7 11 -15 11 -8 0 -15 5 -15 10 0
6 5 10 11 10 5 0 7 5 4 10 -10 17 -35 11 -59 -13 l-24 -24 -6 51 c-4 28 -9 67
-13 86 l-5 35 36 -35 37 -35 -7 30 c-10 42 -24 68 -47 84 -15 11 -16 15 -6 22
10 6 7 11 -11 18 -18 7 -20 10 -7 10 28 1 22 55 -12 93 -15 18 -32 44 -36 58
l-7 25 21 -22 c11 -12 21 -25 21 -29 0 -15 44 -54 61 -54 10 0 23 -8 29 -17
11 -17 11 -17 6 0 -5 15 -2 17 14 12 24 -8 29 22 5 31 -8 4 -15 10 -15 16 0 5
5 6 10 3 6 -3 10 -1 10 5 0 6 -7 13 -16 17 -11 4 -12 8 -4 13 14 9 -4 58 -25
66 -25 10 -17 23 15 22 17 -1 33 2 37 5 9 10 16 8 39 -11z m1734 -430 c0 -5
17 -21 37 -35 21 -15 34 -27 30 -27 -4 0 4 -12 18 -26 l25 -25 -317 -237
c-175 -131 -339 -253 -366 -272 -53 -37 -53 -43 -11 -116 27 -46 30 -66 11
-58 -7 2 -26 -7 -41 -21 -38 -35 -50 -32 -64 21 -7 26 -23 60 -35 75 -12 16
-33 43 -46 60 -13 16 -22 31 -20 33 2 2 14 9 27 15 23 12 23 13 -14 31 -20 11
-43 28 -51 40 -8 11 -21 20 -29 20 -8 0 -14 7 -14 15 0 39 92 -2 176 -78 l61
-56 114 86 c63 47 128 96 144 109 17 12 113 84 215 159 102 74 196 144 210
154 l25 19 -60 61 c-40 41 -54 61 -42 61 9 0 17 -4 17 -8z m-3220 -462 c8 -16
7 -18 -4 -14 -8 3 -17 0 -22 -7 -5 -8 -3 -10 7 -4 11 6 11 5 2 -5 -6 -7 -10
-18 -9 -24 2 -6 1 -8 -1 -3 -10 16 -22 5 -33 -28 -6 -19 -26 -44 -43 -56 -42
-29 -87 -71 -87 -81 0 -15 32 -8 61 13 16 11 29 18 29 16 0 -7 -71 -77 -78
-77 -14 -1 -61 -47 -91 -89 -47 -67 -39 -83 17 -30 38 38 82 67 82 56 0 -1
-34 -31 -75 -66 -41 -35 -75 -72 -75 -81 0 -10 -7 -23 -15 -30 -8 -7 -15 -19
-15 -28 0 -8 -3 -13 -6 -9 -24 24 138 345 202 397 9 8 32 38 50 65 17 28 41
61 53 74 12 13 21 28 21 33 0 13 18 0 30 -22z m2360 -145 c-17 -20 -3 -36 26
-29 24 6 34 -9 14 -21 -5 -3 -10 -21 -10 -39 0 -24 9 -41 36 -67 32 -30 104
-137 104 -153 0 -3 -11 -6 -23 -6 -29 0 -50 22 -71 73 -9 22 -26 47 -40 58
-15 11 -26 34 -30 59 -5 35 -9 40 -25 35 -14 -4 -21 0 -26 15 -4 12 -4 24 -1
27 3 4 1 12 -5 19 -9 11 -7 15 7 20 11 3 26 9 34 14 22 13 24 12 10 -5z
m-1860 -135 c26 -14 39 -66 47 -187 5 -87 4 -103 -9 -108 -17 -7 -137 50 -178
83 -23 19 -24 23 -11 44 8 13 28 46 43 74 27 49 71 104 83 104 4 0 15 -5 25
-10z m918 -477 c42 -9 84 -16 93 -17 12 0 13 -5 5 -23 -10 -19 -17 -21 -66
-18 -30 2 -102 6 -160 10 -107 7 -166 -3 -158 -27 6 -17 24 -25 107 -49 71
-21 111 -46 111 -70 0 -7 -7 -8 -17 -3 -25 11 -119 17 -150 9 -33 -8 -18 -26
27 -31 18 -2 59 -16 91 -30 49 -22 59 -31 59 -52 0 -23 -2 -24 -47 -17 -27 4
-50 11 -53 15 -6 9 -129 51 -157 52 -10 1 -28 -2 -40 -6 -16 -5 -25 -2 -33 14
-14 26 -8 36 30 43 34 7 39 23 10 32 -11 3 -20 14 -20 24 0 27 -21 43 -38 28
-20 -16 -102 -16 -102 0 0 18 -29 16 -36 -2 -4 -10 -19 -14 -44 -13 -37 1 -38
2 -29 27 14 36 29 51 49 51 10 0 20 6 23 13 4 10 -3 12 -24 9 -34 -5 -83 -59
-100 -109 -10 -30 -39 -47 -39 -23 0 6 -5 10 -12 10 -6 0 -19 7 -27 14 -12 11
-21 12 -31 5 -11 -8 -12 -12 -2 -16 6 -2 12 -11 12 -19 0 -8 3 -14 8 -13 33 5
77 -37 63 -60 -6 -9 -18 -6 -45 13 -20 13 -66 34 -101 46 -36 12 -65 25 -65
29 0 3 33 40 74 80 l74 74 53 -7 c28 -4 65 -10 80 -13 22 -4 29 -2 29 11 0 9
5 16 11 16 5 0 7 -5 4 -10 -4 -7 3 -8 21 -4 20 5 30 2 40 -10 9 -13 17 -15 31
-8 10 5 24 7 30 5 7 -3 20 3 29 12 12 12 25 14 43 9 14 -4 33 -6 41 -6 242 24
258 25 348 5z m454 -58 c-7 -37 17 -84 52 -102 20 -11 55 -16 101 -16 61 0 66
-1 35 -9 -19 -5 -50 -8 -69 -6 -31 4 -41 -2 -104 -61 -74 -70 -109 -129 -147
-246 -28 -88 -80 -205 -91 -205 -5 0 -9 -6 -9 -14 0 -23 -123 -116 -136 -103
-3 2 9 10 26 17 30 12 89 71 109 108 8 16 7 21 -4 26 -23 8 -18 28 4 21 25 -8
37 16 80 150 42 128 68 173 147 247 35 34 64 64 64 68 0 4 -11 12 -25 18 -15
7 -32 27 -40 45 -8 17 -15 28 -15 22 -1 -13 -29 37 -30 53 0 6 5 12 10 12 6 0
10 -9 10 -21 0 -11 5 -17 10 -14 6 3 10 15 10 26 0 11 4 18 9 15 4 -3 6 -17 3
-31z m-895 -214 c4 -16 13 -19 59 -18 57 1 75 -6 56 -25 -7 -7 -12 -20 -12
-30 0 -18 17 -22 68 -18 16 1 22 -4 22 -18 0 -34 -20 -41 -82 -29 -44 8 -59
15 -64 31 -4 11 -21 34 -40 51 -39 36 -54 75 -29 75 9 0 19 -9 22 -19z m-379
-111 c91 -28 97 -33 135 -105 l35 -66 -24 -27 c-22 -24 -25 -25 -34 -10 -17
29 -41 48 -58 48 -17 0 -142 -128 -142 -145 0 -6 5 -16 12 -23 10 -10 -4 -28
-62 -87 -71 -72 -98 -87 -92 -51 2 9 -4 16 -13 16 -8 0 -15 2 -15 4 0 2 -3 12
-7 22 -4 12 -3 15 5 10 18 -11 15 37 -5 80 -14 28 -15 38 -5 41 6 3 12 11 12
18 0 7 5 15 12 17 6 2 12 13 12 24 3 28 16 45 28 38 7 -5 9 -1 5 9 -5 12 1 19
18 23 14 3 22 10 19 15 -3 5 1 12 9 15 13 5 27 30 31 58 0 5 10 12 21 17 19 7
19 8 1 8 -11 1 -31 -9 -45 -21 -14 -13 -1 3 29 35 30 31 54 57 55 57 0 0 28
-9 63 -20z m679 -207 c-3 -5 8 -48 24 -97 31 -98 33 -88 -29 -159 -18 -21 -42
-57 -54 -81 l-21 -43 -50 19 c-88 34 -185 112 -166 134 7 9 7 25 -1 53 -8 31
-14 39 -28 35 -13 -5 -14 -4 -3 4 8 6 11 17 8 26 -4 9 -2 16 4 16 11 0 55 71
51 83 -1 4 6 3 17 -3 11 -5 21 -20 23 -32 2 -19 9 -23 39 -23 27 0 48 -9 78
-33 44 -36 65 -36 96 -2 17 18 16 21 -14 57 l-32 38 28 6 c16 4 29 7 31 8 2 0
1 -2 -1 -6z m-262 -350 l30 -22 -23 -16 c-15 -11 -22 -25 -20 -38 3 -19 8 -22
43 -19 42 3 70 21 48 29 -7 3 -13 9 -13 13 0 11 104 -36 107 -47 0 -5 4 -20 7
-35 8 -35 24 -36 32 -3 7 28 6 27 27 19 16 -6 11 -44 -5 -44 -6 0 -8 -11 -6
-25 4 -17 1 -25 -8 -25 -7 0 -71 30 -141 66 -99 52 -139 78 -175 118 l-47 52
22 31 22 31 35 -31 c19 -18 49 -42 65 -54z m417 77 c30 0 30 -1 15 -18 -10
-10 -14 -22 -10 -26 4 -4 0 -12 -9 -17 -12 -7 -16 -20 -13 -49 3 -36 -8 -56
-17 -29 -2 6 -34 10 -75 11 l-73 0 32 44 c44 61 64 77 88 71 18 -5 19 -3 8 11
-11 14 -10 15 5 9 10 -4 32 -7 49 -7z m-702 -105 c0 -18 33 -20 60 -3 16 10
23 10 37 -5 16 -15 16 -17 1 -17 -9 0 -20 -9 -23 -20 -3 -11 -15 -25 -26 -30
-22 -12 -26 -48 -6 -56 7 -2 31 1 53 8 34 12 39 17 36 41 -4 34 14 35 40 2 22
-28 165 -125 185 -125 21 0 15 -14 -18 -46 -17 -17 -28 -36 -26 -46 4 -12 -1
-15 -15 -13 -11 3 -36 -1 -56 -8 -21 -7 -45 -11 -54 -9 -23 4 -34 42 -17 53
10 6 5 9 -14 9 -18 0 -36 -9 -48 -22 l-19 -23 -20 24 c-11 12 -18 27 -15 31 3
5 1 11 -4 14 -5 4 -12 2 -16 -4 -10 -16 -35 -12 -35 6 0 13 -3 14 -14 5 -11
-10 -17 -8 -25 6 -10 17 -10 17 -11 0 0 -17 -1 -17 -16 -3 -8 9 -12 21 -9 26
4 7 -5 9 -26 5 l-32 -6 24 20 c13 11 19 20 13 21 -14 0 -25 48 -13 56 5 3 9 9
9 14 0 10 -40 1 -60 -14 -28 -21 -62 -37 -67 -33 -2 3 14 18 37 33 22 16 70
50 106 77 71 51 84 55 84 32z"/>
</g>
</svg>
